<?xml version="1.0" encoding="UTF-8" standalone="no"?>
<!-- Created with Inkscape (http://www.inkscape.org/) -->

<svg
   xmlns:dc="http://purl.org/dc/elements/1.1/"
   xmlns:cc="http://creativecommons.org/ns#"
   xmlns:rdf="http://www.w3.org/1999/02/22-rdf-syntax-ns#"
   xmlns:svg="http://www.w3.org/2000/svg"
   xmlns="http://www.w3.org/2000/svg"
   xmlns:sodipodi="http://sodipodi.sourceforge.net/DTD/sodipodi-0.dtd"
   xmlns:inkscape="http://www.inkscape.org/namespaces/inkscape"
   width="535mm"
   height="297mm"
   viewBox="0 0 535 297"
   version="1.1"
   id="svg8"
   inkscape:version="0.92.4 (f8dce91, 2019-08-02)"
   sodipodi:docname="schedule-background-grass.svg">
  <defs
     id="defs2" />
  <sodipodi:namedview
     id="base"
     pagecolor="#ffffff"
     bordercolor="#666666"
     borderopacity="1.0"
     inkscape:pageopacity="0.0"
     inkscape:pageshadow="2"
     inkscape:zoom="0.49497476"
     inkscape:cx="1152.6854"
     inkscape:cy="426.86166"
     inkscape:document-units="mm"
     inkscape:current-layer="layer1"
     showgrid="false"
     inkscape:window-width="1853"
     inkscape:window-height="1025"
     inkscape:window-x="67"
     inkscape:window-y="27"
     inkscape:window-maximized="1" />
  <metadata
     id="metadata5">
    <rdf:RDF>
      <cc:Work
         rdf:about="">
        <dc:format>image/svg+xml</dc:format>
        <dc:type
           rdf:resource="http://purl.org/dc/dcmitype/StillImage" />
        <dc:title />
      </cc:Work>
    </rdf:RDF>
  </metadata>
  <g
     inkscape:label="Layer 1"
     inkscape:groupmode="layer"
     id="layer1">
    <path
       style="fill:#536c67;stroke:#000000;stroke-width:0;stroke-linecap:butt;stroke-linejoin:miter;stroke-opacity:1;stroke-miterlimit:4;stroke-dasharray:none"
       d="M -0.53453905,171.91786 71.093694,93.34062 119.73675,75.166293 l 12.82893,-14.432555 73.23185,24.054258 39.02135,57.195674 78.04271,18.70887 90.87162,-11.22532 L 535.60813,42.024871 V 298.60361 L 0,297.53454 Z"
       id="path1490"
       inkscape:connector-curvature="0" />
    <path
       style="fill:#aaffee;stroke:#000000;stroke-width:0;stroke-linecap:butt;stroke-linejoin:miter;stroke-opacity:1;stroke-miterlimit:4;stroke-dasharray:none"
       d="m 37.952272,129.68928 33.141422,-36.34866 48.643056,-18.174327 12.82893,-14.432555 73.23185,24.054258 18.70887,27.261494 -19.26533,-18.589667 -3.59078,11.906247 -15.11904,17.95387 -8.69346,-25.702381 -2.64583,7.181551 -12.6622,-5.669645 -16.81994,18.331845 -18.52084,-8.69345 -2.45684,20.22172 -23.70426,-15.33648 -12.294399,-0.53453 -22.450639,10.15624 3.741772,-12.82894 z"
       id="path1492"
       inkscape:connector-curvature="0" />
    <path
       style="fill:#aaffee;stroke:#000000;stroke-width:0;stroke-linecap:butt;stroke-linejoin:miter;stroke-opacity:1;fill-opacity:1;stroke-miterlimit:4;stroke-dasharray:none"
       d="m 465.31625,104.29867 36.88318,-23.519718 -1.60362,21.916098 18.44159,-27.261488 5.87995,12.027127 10.42349,-10.958049 0.26729,-34.477769 z"
       id="path1494"
       inkscape:connector-curvature="0" />
    <path
       style="fill:#374845;stroke:#000000;stroke-width:0;stroke-linecap:butt;stroke-linejoin:miter;stroke-opacity:1;stroke-miterlimit:4;stroke-dasharray:none"
       d="M 37.417734,135.83647 57.730217,125.68023 22.45064,290.05098 4.8108515,294.06003 3.7797618,172.45684 Z"
       id="path1496"
       inkscape:connector-curvature="0" />
    <path
       style="fill:#374845;stroke:#000000;stroke-width:0;stroke-linecap:butt;stroke-linejoin:miter;stroke-opacity:1;fill-opacity:1;stroke-miterlimit:4;stroke-dasharray:none"
       d="m 65.213764,129.95655 24.054257,-10.42352 h 10.958049 l 23.25245,15.50164 41.1595,157.42175 -130.694791,0.26725 -2.672694,-3.20722 z"
       id="path1498"
       inkscape:connector-curvature="0" />
    <path
       style="fill:#374845;stroke:#000000;stroke-width:0;stroke-linecap:butt;stroke-linejoin:miter;stroke-opacity:1;fill-opacity:1;stroke-miterlimit:4;stroke-dasharray:none"
       d="m 128.82391,133.69832 1.60362,-17.10525 16.83798,8.01808 82.05174,117.59859 -9.6217,39.28861 -49.44486,8.55263 z"
       id="path1500"
       inkscape:connector-curvature="0" />
    <path
       style="fill:#374845;stroke:#000000;stroke-width:0;stroke-linecap:butt;stroke-linejoin:miter;stroke-opacity:1;fill-opacity:1;stroke-miterlimit:4;stroke-dasharray:none"
       d="m 148.35565,118.78423 15.59152,-16.91444 10.48884,5.29167 z"
       id="path1502"
       inkscape:connector-curvature="0" />
    <path
       style="fill:#374845;stroke:#000000;stroke-width:0;stroke-linecap:butt;stroke-linejoin:miter;stroke-opacity:1;fill-opacity:1;stroke-miterlimit:4;stroke-dasharray:none"
       d="m 151.56845,122.65848 23.62351,-13.70164 2.45685,-8.78794 8.50446,25.60788 16.44196,-19.46577 86.59038,171.71286 -2.67269,9.62168 h -14.96708 z"
       id="path1504"
       inkscape:connector-curvature="0" />
    <path
       style="fill:#374845;stroke:#000000;stroke-width:0;stroke-linecap:butt;stroke-linejoin:miter;stroke-opacity:1;fill-opacity:1;stroke-miterlimit:4;stroke-dasharray:none"
       d="m 203.20945,105.27158 2.64583,-9.827385 18.47359,17.670385 19.98888,29.47045 51.07065,112.6486 -4.72472,18.33185 z"
       id="path1506"
       inkscape:connector-curvature="0" />
    <path
       style="fill:#374845;stroke:#000000;stroke-width:0;stroke-linecap:butt;stroke-linejoin:miter;stroke-opacity:1;fill-opacity:1;stroke-miterlimit:4;stroke-dasharray:none"
       d="m 222.06101,281.88094 9.07143,-38.64806 6.80357,0.94494 31.74999,44.12871 z"
       id="path1508"
       inkscape:connector-curvature="0" />
    <path
       style="fill:#374845;stroke:#000000;stroke-width:0;stroke-linecap:butt;stroke-linejoin:miter;stroke-opacity:1;fill-opacity:1;stroke-miterlimit:4;stroke-dasharray:none"
       d="m 465.09969,106.40551 35.34079,-22.3006 -1.41743,19.84375 -33.73437,109.89658 -82.02084,80.13094 31.66809,-143.9076 z"
       id="path1510"
       inkscape:connector-curvature="0" />
    <path
       style="fill:#374845;stroke:#000000;stroke-width:0;stroke-linecap:butt;stroke-linejoin:miter;stroke-opacity:1;fill-opacity:1;stroke-miterlimit:4;stroke-dasharray:none"
       d="m 468.18938,214.81462 33.38502,-110.67697 17.48139,-25.702382 5.26018,10.294953 1.67045,129.157999 -38.48682,75.90455 z"
       id="path1512"
       inkscape:connector-curvature="0" />
  </g>
</svg>
