<?xml version="1.0" encoding="UTF-8" standalone="no"?>
<!-- Created with Inkscape (http://www.inkscape.org/) -->

<svg
   xmlns:dc="http://purl.org/dc/elements/1.1/"
   xmlns:cc="http://creativecommons.org/ns#"
   xmlns:rdf="http://www.w3.org/1999/02/22-rdf-syntax-ns#"
   xmlns:svg="http://www.w3.org/2000/svg"
   xmlns="http://www.w3.org/2000/svg"
   xmlns:sodipodi="http://sodipodi.sourceforge.net/DTD/sodipodi-0.dtd"
   xmlns:inkscape="http://www.inkscape.org/namespaces/inkscape"
   width="535mm"
   height="297mm"
   viewBox="0 0 535 297"
   version="1.1"
   id="svg8"
   inkscape:version="0.92.4 (f8dce91, 2019-08-02)"
   sodipodi:docname="schedule-dark-grass.svg">
  <defs
     id="defs2" />
  <sodipodi:namedview
     id="base"
     pagecolor="#ffffff"
     bordercolor="#666666"
     borderopacity="1.0"
     inkscape:pageopacity="0.0"
     inkscape:pageshadow="2"
     inkscape:zoom="0.7"
     inkscape:cx="367.84759"
     inkscape:cy="289.30879"
     inkscape:document-units="mm"
     inkscape:current-layer="layer3"
     showgrid="false"
     inkscape:window-width="1853"
     inkscape:window-height="1025"
     inkscape:window-x="67"
     inkscape:window-y="27"
     inkscape:window-maximized="1" />
  <metadata
     id="metadata5">
    <rdf:RDF>
      <cc:Work
         rdf:about="">
        <dc:format>image/svg+xml</dc:format>
        <dc:type
           rdf:resource="http://purl.org/dc/dcmitype/StillImage" />
        <dc:title />
      </cc:Work>
    </rdf:RDF>
  </metadata>
  <g
     inkscape:label="Layer 1"
     inkscape:groupmode="layer"
     id="layer1"
     style="display:none;opacity:0.44200003"
     sodipodi:insensitive="true">
    <path
       style="fill:#00827d;fill-opacity:1;stroke:#000000;stroke-width:0;stroke-linecap:butt;stroke-linejoin:miter;stroke-miterlimit:4;stroke-dasharray:none;stroke-opacity:1"
       d="M 0.11151432,222.75184 C 21.85177,212.33278 6.3305854,207.08466 31.421824,215.84704 c 21.82886,-21.17831 60.684243,-13.35244 71.140816,-9.51744 17.02154,-5.28922 34.07327,-11.86254 50.58462,4.54233 15.71209,11.07156 31.09629,19.69047 44.47111,13.27755 66.76773,-47.20276 176.72216,57.75912 195.93811,73.71966 L 279.26372,297.17606 0.01293881,296.82669 Z"
       id="path836"
       inkscape:connector-curvature="0"
       sodipodi:nodetypes="ccccccccc" />
  </g>
  <g
     inkscape:groupmode="layer"
     id="layer3"
     inkscape:label="path">
    <path
       style="fill:#225500;stroke:#000000;stroke-width:0;stroke-linecap:butt;stroke-linejoin:miter;stroke-opacity:1;stroke-miterlimit:4;stroke-dasharray:none;fill-opacity:1"
       d="m 0.01293881,296.8267 0.09857551,-74.07486 c 0,0 1.77836658,-14.76523 3.29027138,-8.33964 1.5119046,6.42559 7.9375003,-2.45684 7.9375003,-2.45684 l 0.377976,2.26785 c 0,0 4.535714,-8.12649 4.724702,-4.34672 0.188988,3.77976 4.346726,6.99255 6.425595,4.91369 2.078869,-2.07887 1.889881,-5.48066 2.078869,-2.07887 0.188988,3.40178 5.102679,-0.56697 5.102679,-0.56697 l 1.372717,3.7027 4.863891,-5.40359 c 0,0 -0.755955,-0.75595 1.889879,1.32292 2.645833,2.07887 4.346725,-4.7247 4.346725,-4.7247 0,0 1.511906,0.75595 4.913691,1.70089 3.401788,0.94494 3.401788,-2.45685 3.401788,-2.45685 0,0 3.212795,3.77976 5.669642,0.56697 2.456844,-3.2128 5.291667,-7.18155 7.559524,-4.53572 2.267855,2.64583 5.480653,7.55953 7.9375,3.59078 2.456844,-3.96875 2.078868,-8.31548 4.157737,-5.85863 2.078868,2.45684 2.645833,3.59077 2.645833,3.59077 l 0.755952,-3.96875 2.456846,4.15774 c 0,0 1.700893,-7.9375 3.96875,-4.53572 2.267858,3.40179 2.267858,6.80357 2.267858,6.80357 l 4.913691,-3.59077 c 0,0 -0.18899,6.42559 2.078868,5.10268 2.267857,-1.32292 1.758788,-8.54835 4.535715,-4.91369 l 2.776926,3.63466 4.02664,-3.25668 3.96875,2.45684 c 0,0 -0.56696,-4.15774 2.07887,-3.77976 2.64584,0.37797 2.83482,3.59077 2.83482,3.59077 l 5.85864,-4.91369 2.45684,3.77976 c 0,0 0,-10.96131 2.45684,-6.80357 2.45685,4.15774 4.34673,8.31548 4.34673,8.31548 l 3.2128,-5.10268 2.07887,4.15774 3.40178,-0.56697 3.77976,2.26786 c 0,0 1.32292,-6.04762 2.64584,-2.07887 1.32291,3.96875 3.77976,0.28348 4.06324,2.45685 0.28348,2.17336 0.94494,3.02381 0.94494,3.02381 l 2.83482,-1.22843 -0.40556,2.22387 c 0,0 -2.48444,0.42847 0,0 2.48443,-0.42848 3.0514,-1.27893 2.76792,0.89444 -0.28349,2.17336 0.37797,4.7247 1.98437,3.40178 1.6064,-1.32291 2.17336,-3.21279 2.74033,-0.0945 0.56696,3.1183 0.85044,5.48065 2.45684,4.06324 1.6064,-1.41741 1.57397,-2.04552 2.64584,-0.18898 1.07187,1.85653 -0.37798,3.40178 1.6064,2.36235 1.98437,-1.03944 2.92931,-0.47248 2.92931,-0.47248 l 0.85045,2.74033 1.5119,-2.55134 2.64584,3.49628 c 0,0 0.94494,-3.40178 1.32291,-1.03943 0.37798,2.36235 1.79539,4.06324 2.74033,2.26786 0.94494,-1.79539 2.74033,-3.2128 3.68527,-0.85045 0.94494,2.36235 2.74032,4.25223 3.02381,2.26785 0.28348,-1.98437 -0.18899,-4.06324 1.6064,-1.98437 1.79538,2.07887 2.36235,3.49628 3.96875,1.6064 1.60639,-1.88988 0.75595,-2.74033 2.83482,-1.6064 2.07887,1.13393 3.14962,-1.03504 3.14962,-1.03504 0,0 -1.35424,-2.55573 1.48059,-1.70529 2.83482,0.85045 1.88987,1.32292 3.59077,-1.03943 1.70089,-2.36235 2.74033,-2.45684 3.2128,-2.26786 0.47247,0.18899 2.92931,-1.88988 2.92931,-1.88988 l 2.64583,0.56697 2.45685,-3.2128 3.02381,1.03943 c 0,0 0.37798,1.6064 2.36235,-0.56696 1.98438,-2.17337 1.32292,-2.64583 2.92932,-1.79539 1.60639,0.85045 0.75595,1.41741 3.40178,-0.0945 2.64584,-1.51191 1.6064,-2.26786 3.49628,-1.13393 1.88988,1.13393 1.6064,1.5119 2.92932,0.37798 1.32291,-1.13393 1.70089,-2.45685 1.70089,-0.94495 0,1.51191 0.66146,-0.18898 0.66146,-0.18898 l 0.47247,1.22842 0.85044,-2.07887 c 0,0 0.18899,5.00818 1.51191,3.2128 1.32292,-1.79539 1.88988,-2.17337 1.88988,-2.17337 l 1.5119,1.6064 1.32292,-1.98437 c 0,0 -1.13393,1.32292 1.13393,1.88988 2.26786,0.56696 3.96875,-1.41741 3.96875,-1.41741 l 1.22842,1.79539 2.45685,-1.79539 1.98437,2.64583 c 0,0 2.92932,2.64583 3.40179,1.32292 0.47247,-1.32292 1.70089,-1.79539 2.83482,-0.28348 1.13393,1.5119 1.98438,1.5119 2.36235,1.5119 0.37798,0 2.64583,-0.66146 2.64583,-0.66146 0,0 0.56697,1.79539 0.94495,1.88988 0.37796,0.0945 2.83483,-0.47247 3.3073,-0.47247 0.47246,0 2.9293,1.88988 3.77975,1.98438 0.85045,0.0945 2.64584,-0.94494 3.3073,-0.94494 0.66145,0 2.36235,1.70089 2.74031,1.70089 0.37798,0 4.44122,-0.28348 4.44122,-0.28348 40.46575,20.33921 78.58429,44.49263 111.0193,77.88178 z"
       id="path4691"
       inkscape:connector-curvature="0"
       sodipodi:nodetypes="ccsccscscccscsccssccccccccsccccccccccccccscccccccsccccccccscccsccccccccsccscscccccccsccccccsccssssccc" />
  </g>
</svg>
